<svg width="371" height="237" viewBox="0 0 371 237" fill="none" xmlns="http://www.w3.org/2000/svg">
<path d="M67.9706 173.504C32.5298 189.064 122.269 95.9465 105.223 58.9517C83.6181 25.2052 -12.5969 38.0604 1.38122 25.318C18.3085 9.88654 127.52 9.56974 149.911 40.1267C169.764 71.1046 74.4429 170.662 67.9706 173.504Z" fill="white"/>
<path d="M183.272 180.246C172.075 180.246 163.611 177.544 157.882 172.141C152.153 166.737 149.288 160.259 149.288 152.707C149.288 143.983 152.999 137.082 160.421 132.004C167.908 126.861 178.129 124.289 191.085 124.289C195.317 124.289 199.549 124.549 203.78 125.07C208.012 125.526 212.016 126.242 215.792 127.219V115.988C215.792 111.04 214.067 107.102 210.616 104.172C207.231 101.242 201.957 99.7773 194.796 99.7773C182.947 99.7773 175.883 104.497 173.604 113.938L157.491 112.473L158.077 92.9414C159.965 92.0299 164.36 90.7604 171.261 89.1328C178.162 87.4401 186.983 86.5938 197.726 86.5938C214.653 86.5938 226.86 89.1003 234.347 94.1133C241.899 99.0612 245.675 107.46 245.675 119.309V151.438C245.675 155.018 245.838 157.59 246.163 159.152C246.554 160.65 247.27 161.561 248.312 161.887C249.418 162.212 251.078 162.375 253.292 162.375H257.979V178C257.328 178 255.636 178 252.901 178C250.232 177.935 247.465 177.902 244.601 177.902C241.736 177.902 239.783 177.902 238.741 177.902C235.095 177.967 231.97 178 229.366 178C226.827 178.065 223.735 178.163 220.089 178.293L217.159 165.598C214.36 170.155 210.323 173.736 205.05 176.34C199.776 178.944 192.517 180.246 183.272 180.246ZM194.601 165.988C198.832 165.988 202.543 165.24 205.733 163.742C208.924 162.245 211.397 160.064 213.155 157.199C214.913 154.27 215.792 150.754 215.792 146.652V136.594C213.058 135.812 210.356 135.259 207.687 134.934C205.017 134.608 202.315 134.445 199.581 134.445C192.81 134.445 187.504 135.878 183.663 138.742C179.887 141.542 177.999 145.448 177.999 150.461C177.999 155.279 179.562 159.087 182.687 161.887C185.877 164.621 189.848 165.988 194.601 165.988ZM285.226 218.332C283.989 218.332 282.394 218.332 280.44 218.332C278.552 218.332 276.957 218.365 275.655 218.43V199.973C277.022 199.973 278.259 199.973 279.366 199.973C280.538 199.973 281.612 199.94 282.589 199.875C286.756 199.745 289.978 198.996 292.257 197.629C294.535 196.327 296.586 193.788 298.409 190.012L300.46 185.715C300.46 185.715 299.679 184.055 298.116 180.734C296.554 177.479 294.535 173.247 292.062 168.039C289.653 162.831 287.049 157.297 284.249 151.438C281.515 145.513 278.878 139.914 276.339 134.641C273.8 129.302 271.716 124.875 270.089 121.359C268.461 117.844 267.55 115.923 267.354 115.598C265.727 112.212 264.36 109.868 263.253 108.566C262.211 107.199 260.03 106.516 256.71 106.516H253.878C253.878 106.255 253.878 105.311 253.878 103.684C253.878 101.991 253.878 100.07 253.878 97.9219C253.878 95.7734 253.878 93.8854 253.878 92.2578C253.878 90.5651 253.878 89.5885 253.878 89.3281C258.696 89.3281 263.188 89.3607 267.354 89.4258C271.521 89.4909 275.2 89.5234 278.39 89.5234C282.621 89.5234 287.114 89.5234 291.866 89.5234C296.619 89.4583 301.957 89.3932 307.882 89.3281V105.148H304.073C301.534 105.148 299.646 105.539 298.409 106.32C297.172 107.102 296.554 108.241 296.554 109.738C296.554 110.715 297.172 112.603 298.409 115.402C299.711 118.202 300.785 120.546 301.632 122.434L315.597 153.684L331.319 115.598C332.426 113.059 333.11 110.91 333.37 109.152C332.979 107.655 332.003 106.613 330.44 106.027C328.878 105.441 326.241 105.148 322.53 105.148V89.3281C326.892 89.3932 330.733 89.4583 334.054 89.5234C337.374 89.5234 340.727 89.5234 344.112 89.5234C348.735 89.5234 353.032 89.5234 357.003 89.5234C361.039 89.4583 365.434 89.3932 370.187 89.3281C370.187 89.5885 370.187 90.5 370.187 92.0625C370.187 93.625 370.187 95.3828 370.187 97.3359C370.187 99.2891 370.187 101.047 370.187 102.609C370.252 104.107 370.317 104.953 370.382 105.148C366.736 105.214 364.034 105.539 362.276 106.125C360.519 106.711 359.151 107.753 358.175 109.25C357.198 110.747 356.026 112.993 354.659 115.988L320.089 191.184C316.899 198.02 313.676 203.391 310.421 207.297C307.166 211.268 303.52 214.1 299.483 215.793C295.512 217.486 290.759 218.332 285.226 218.332Z" fill="white"/>
</svg>
