<svg width="500" height="500" viewBox="0 0 500 500" fill="none" xmlns="http://www.w3.org/2000/svg">
<rect width="500" height="500" fill="#1E1E1E"/>
<rect width="500" height="500" rx="40" fill="url(#paint0_linear_0_1)"/>
<g filter="url(#filter0_d_0_1)">
<path d="M147.022 424.814C70.681 428.991 304.402 311.407 301.152 224.815C287.145 141.244 102.008 94.0456 137.088 79.2394C179.569 61.3092 378.972 143.319 396.813 221.131C409.709 297.862 160.963 424.051 147.022 424.814Z" fill="url(#paint1_linear_0_1)" shape-rendering="crispEdges"/>
<path d="M396.322 221.226C397.906 230.67 395.473 240.918 389.91 251.652C384.345 262.389 375.667 273.577 364.823 284.874C343.136 307.467 312.851 330.435 281.705 351.044C250.564 371.65 218.581 389.884 193.514 403.014C180.981 409.579 170.18 414.866 162.081 418.535C158.03 420.369 154.659 421.797 152.088 422.777C150.802 423.267 149.721 423.642 148.858 423.901C147.984 424.163 147.367 424.294 146.994 424.314C142.241 424.574 138.742 424.357 136.335 423.724C133.922 423.09 132.724 422.074 132.338 420.824C131.941 419.538 132.334 417.803 133.61 415.578C134.875 413.371 136.948 410.783 139.719 407.847C150.815 396.089 172.727 379.112 196.995 359.24C221.236 339.39 247.79 316.682 268.081 293.513C288.352 270.367 302.472 246.652 301.651 224.796L301.65 224.764L301.645 224.732C298.115 203.672 283.816 184.956 265.003 168.518C246.184 152.074 222.787 137.855 200.955 125.802C179.09 113.732 158.849 103.861 146.217 96.0542C143.065 94.1063 140.401 92.2962 138.315 90.6209C136.222 88.9404 134.741 87.4199 133.92 86.0596C133.105 84.7096 132.978 83.5871 133.447 82.6129C133.934 81.5994 135.127 80.6101 137.283 79.7005C142.483 77.5054 150.15 76.8185 159.678 77.4952C169.192 78.1709 180.504 80.2012 192.959 83.3878C217.868 89.7609 247.302 100.75 275.972 114.731C304.643 128.713 332.53 145.678 354.357 163.995C376.192 182.319 391.894 201.94 396.322 221.226Z" stroke="#F2F2F2" shape-rendering="crispEdges"/>
</g>
<defs>
<filter id="filter0_d_0_1" x="131.689" y="76.7457" width="271.609" height="358.176" filterUnits="userSpaceOnUse" color-interpolation-filters="sRGB">
<feFlood flood-opacity="0" result="BackgroundImageFix"/>
<feColorMatrix in="SourceAlpha" type="matrix" values="0 0 0 0 0 0 0 0 0 0 0 0 0 0 0 0 0 0 127 0" result="hardAlpha"/>
<feOffset dx="3" dy="7"/>
<feGaussianBlur stdDeviation="1.5"/>
<feComposite in2="hardAlpha" operator="out"/>
<feColorMatrix type="matrix" values="0 0 0 0 0 0 0 0 0 0 0 0 0 0 0 0 0 0 0.5 0"/>
<feBlend mode="normal" in2="BackgroundImageFix" result="effect1_dropShadow_0_1"/>
<feBlend mode="normal" in="SourceGraphic" in2="effect1_dropShadow_0_1" result="shape"/>
</filter>
<linearGradient id="paint0_linear_0_1" x1="250" y1="0" x2="250" y2="500" gradientUnits="userSpaceOnUse">
<stop stop-color="#1BCA9F"/>
<stop offset="1" stop-color="#077056"/>
</linearGradient>
<linearGradient id="paint1_linear_0_1" x1="229.224" y1="70.0091" x2="285.656" y2="405.781" gradientUnits="userSpaceOnUse">
<stop stop-color="white" stop-opacity="0.95"/>
<stop offset="1" stop-color="white" stop-opacity="0.9"/>
</linearGradient>
</defs>
</svg>
