<svg width="120" height="43" viewBox="0 0 120 43" fill="none" xmlns="http://www.w3.org/2000/svg">
<path d="M31.4187 35.3032C29.907 35.3032 28.7644 34.9385 27.991 34.209C27.2175 33.4795 26.8308 32.605 26.8308 31.5854C26.8308 30.4077 27.3318 29.4761 28.3337 28.7905C29.3445 28.0962 30.7244 27.749 32.4734 27.749C33.0447 27.749 33.616 27.7842 34.1873 27.8545C34.7585 27.916 35.2991 28.0127 35.8088 28.1445V26.6284C35.8088 25.9604 35.5759 25.4287 35.1101 25.0332C34.6531 24.6377 33.9412 24.4399 32.9744 24.4399C31.3748 24.4399 30.4211 25.0771 30.1135 26.3516L27.9382 26.1538L28.0173 23.5171C28.2722 23.394 28.8655 23.2227 29.7971 23.0029C30.7288 22.7744 31.9197 22.6602 33.3699 22.6602C35.655 22.6602 37.303 22.9985 38.3137 23.6753C39.3333 24.3433 39.843 25.4771 39.843 27.0767V31.4141C39.843 31.8975 39.865 32.2446 39.9089 32.4556C39.9617 32.6577 40.0583 32.7808 40.199 32.8247C40.3484 32.8687 40.5725 32.8906 40.8713 32.8906H41.5042V35C41.4163 35 41.1877 35 40.8186 35C40.4583 34.9912 40.0847 34.9868 39.698 34.9868C39.3113 34.9868 39.0476 34.9868 38.907 34.9868C38.4148 34.9956 37.9929 35 37.6414 35C37.2986 35.0088 36.8811 35.022 36.3889 35.0396L35.9934 33.3257C35.6155 33.9409 35.0706 34.4243 34.3586 34.7759C33.6467 35.1274 32.6667 35.3032 31.4187 35.3032ZM32.948 33.3784C33.5193 33.3784 34.0203 33.2773 34.4509 33.0752C34.8816 32.873 35.2156 32.5786 35.4529 32.1919C35.6902 31.7964 35.8088 31.3218 35.8088 30.7681V29.4102C35.4397 29.3047 35.075 29.23 34.7146 29.186C34.3542 29.1421 33.9895 29.1201 33.6204 29.1201C32.7063 29.1201 31.99 29.3135 31.4714 29.7002C30.9617 30.0781 30.7068 30.6055 30.7068 31.2822C30.7068 31.9326 30.9177 32.4468 31.3396 32.8247C31.7703 33.1938 32.3064 33.3784 32.948 33.3784ZM45.1824 40.4448C45.0154 40.4448 44.8 40.4448 44.5364 40.4448C44.2815 40.4448 44.0662 40.4492 43.8904 40.458V37.9663C44.075 37.9663 44.2419 37.9663 44.3914 37.9663C44.5496 37.9663 44.6946 37.9619 44.8264 37.9531C45.3889 37.9355 45.824 37.8345 46.1316 37.6499C46.4392 37.4741 46.7161 37.1313 46.9622 36.6216L47.239 36.0415C47.239 36.0415 47.1335 35.8174 46.9226 35.3691C46.7117 34.9297 46.4392 34.3584 46.1052 33.6553C45.78 32.9521 45.4285 32.2051 45.0505 31.4141C44.6814 30.6143 44.3254 29.8584 43.9827 29.1465C43.6399 28.4258 43.3586 27.8281 43.1389 27.3535C42.9192 26.8789 42.7961 26.6196 42.7698 26.5757C42.55 26.1187 42.3655 25.8022 42.2161 25.6265C42.0754 25.4419 41.781 25.3496 41.3328 25.3496H40.9504C40.9504 25.3145 40.9504 25.187 40.9504 24.9673C40.9504 24.7388 40.9504 24.4795 40.9504 24.1895C40.9504 23.8994 40.9504 23.6445 40.9504 23.4248C40.9504 23.1963 40.9504 23.0645 40.9504 23.0293C41.6008 23.0293 42.2073 23.0337 42.7698 23.0425C43.3323 23.0513 43.8289 23.0557 44.2595 23.0557C44.8308 23.0557 45.4373 23.0557 46.0789 23.0557C46.7205 23.0469 47.4412 23.0381 48.241 23.0293V25.165H47.7268C47.384 25.165 47.1292 25.2178 46.9622 25.3232C46.7952 25.4287 46.7117 25.5825 46.7117 25.7847C46.7117 25.9165 46.7952 26.1714 46.9622 26.5493C47.1379 26.9272 47.283 27.2437 47.3972 27.4985L49.2825 31.7173L51.405 26.5757C51.5544 26.2329 51.6467 25.9429 51.6819 25.7056C51.6292 25.5034 51.4973 25.3628 51.2864 25.2837C51.0754 25.2046 50.7195 25.165 50.2185 25.165V23.0293C50.8074 23.0381 51.3259 23.0469 51.7742 23.0557C52.2224 23.0557 52.675 23.0557 53.1321 23.0557C53.7561 23.0557 54.3362 23.0557 54.8723 23.0557C55.4172 23.0469 56.0105 23.0381 56.6521 23.0293C56.6521 23.0645 56.6521 23.1875 56.6521 23.3984C56.6521 23.6094 56.6521 23.8467 56.6521 24.1104C56.6521 24.374 56.6521 24.6113 56.6521 24.8223C56.6609 25.0244 56.6697 25.1387 56.6785 25.165C56.1863 25.1738 55.8215 25.2178 55.5842 25.2969C55.3469 25.376 55.1624 25.5166 55.0305 25.7188C54.8987 25.9209 54.7405 26.2241 54.5559 26.6284L49.8889 36.7798C49.4583 37.7026 49.0232 38.4277 48.5837 38.9551C48.1443 39.4912 47.6521 39.8735 47.1072 40.1021C46.571 40.3306 45.9294 40.4448 45.1824 40.4448ZM57.0608 35V32.6533H57.6804C58.1111 32.6533 58.4143 32.5874 58.5901 32.4556C58.7747 32.3237 58.8889 32.1436 58.9329 31.915C58.9768 31.6865 58.9988 31.4316 58.9988 31.1504V21.9614C58.9988 21.8823 58.9988 21.7988 58.9988 21.7109C58.9988 21.623 58.9988 21.5352 58.9988 21.4473C58.9988 21.0869 58.9285 20.7749 58.7878 20.5112C58.6472 20.2388 58.2781 20.1025 57.6804 20.1025H57.0608V17.7559C57.1487 17.7559 57.386 17.7603 57.7727 17.769C58.1682 17.7778 58.5901 17.7866 59.0383 17.7954C59.4954 17.7954 59.8601 17.7954 60.1326 17.7954C60.9763 17.7954 61.8025 17.791 62.6111 17.7822C63.4197 17.7734 64.3513 17.7646 65.406 17.7559V20.1025H64.5491C64.1536 20.1025 63.8679 20.1772 63.6921 20.3267C63.5251 20.4761 63.4197 20.665 63.3757 20.8936C63.3318 21.1221 63.3098 21.3594 63.3098 21.6055V32.4028H67.5681C68.2449 32.4028 68.6492 32.126 68.781 31.5723C68.9128 31.0098 68.9832 30.2012 68.9919 29.1465H71.4045V35H57.0608ZM77.2976 35.3032C75.7859 35.3032 74.6433 34.9385 73.8699 34.209C73.0964 33.4795 72.7097 32.605 72.7097 31.5854C72.7097 30.4077 73.2107 29.4761 74.2126 28.7905C75.2234 28.0962 76.6033 27.749 78.3523 27.749C78.9236 27.749 79.4949 27.7842 80.0662 27.8545C80.6375 27.916 81.178 28.0127 81.6877 28.1445V26.6284C81.6877 25.9604 81.4548 25.4287 80.989 25.0332C80.532 24.6377 79.8201 24.4399 78.8533 24.4399C77.2537 24.4399 76.3 25.0771 75.9924 26.3516L73.8171 26.1538L73.8962 23.5171C74.1511 23.394 74.7444 23.2227 75.676 23.0029C76.6077 22.7744 77.7986 22.6602 79.2488 22.6602C81.5339 22.6602 83.1819 22.9985 84.1926 23.6753C85.2122 24.3433 85.7219 25.4771 85.7219 27.0767V31.4141C85.7219 31.8975 85.7439 32.2446 85.7878 32.4556C85.8406 32.6577 85.9373 32.7808 86.0779 32.8247C86.2273 32.8687 86.4514 32.8906 86.7502 32.8906H87.3831V35C87.2952 35 87.0667 35 86.6975 35C86.3372 34.9912 85.9636 34.9868 85.5769 34.9868C85.1902 34.9868 84.9265 34.9868 84.7859 34.9868C84.2937 34.9956 83.8718 35 83.5203 35C83.1775 35.0088 82.76 35.022 82.2678 35.0396L81.8723 33.3257C81.4944 33.9409 80.9495 34.4243 80.2375 34.7759C79.5256 35.1274 78.5457 35.3032 77.2976 35.3032ZM78.8269 33.3784C79.3982 33.3784 79.8992 33.2773 80.3298 33.0752C80.7605 32.873 81.0945 32.5786 81.3318 32.1919C81.5691 31.7964 81.6877 31.3218 81.6877 30.7681V29.4102C81.3186 29.3047 80.9539 29.23 80.5935 29.186C80.2332 29.1421 79.8684 29.1201 79.4993 29.1201C78.5852 29.1201 77.8689 29.3135 77.3503 29.7002C76.8406 30.0781 76.5857 30.6055 76.5857 31.2822C76.5857 31.9326 76.7966 32.4468 77.2185 32.8247C77.6492 33.1938 78.1853 33.3784 78.8269 33.3784ZM98.3123 35.3032C97.3015 35.3032 96.4446 35.1362 95.7415 34.8022C95.0383 34.4683 94.4363 33.9717 93.9353 33.3125L93.9221 35.0396C93.386 35.022 92.8586 35.0088 92.3401 35C91.8215 35 91.303 34.9956 90.7844 34.9868C90.5911 34.9868 90.2966 34.9868 89.9011 34.9868C89.5144 34.9868 89.1584 34.9912 88.8333 35C88.5168 35 88.3586 35 88.3586 35V32.9038C88.4202 32.9038 88.5432 32.9038 88.7278 32.9038C88.9211 32.9038 89.0398 32.9038 89.0837 32.9038C89.4001 32.895 89.6243 32.8115 89.7561 32.6533C89.8879 32.4951 89.967 32.3281 89.9934 32.1523C90.0286 31.9678 90.0461 31.8403 90.0461 31.77V20.8936C90.0461 20.4277 89.9055 20.1421 89.6243 20.0366C89.343 19.9312 88.908 19.874 88.3191 19.8652V17.7559C88.8113 17.7646 89.321 17.7646 89.8484 17.7559C90.3757 17.7383 90.8855 17.7295 91.3777 17.7295C91.8523 17.7207 92.3137 17.7163 92.762 17.7163C93.2102 17.7075 93.6497 17.6943 94.0803 17.6768V24.3477C95.0999 23.2578 96.4666 22.7129 98.1804 22.7129C99.3933 22.7129 100.457 22.9678 101.371 23.4775C102.294 23.9785 103.014 24.6992 103.533 25.6396C104.052 26.5801 104.311 27.7095 104.311 29.0278C104.311 30.2144 104.065 31.2822 103.573 32.2314C103.089 33.1807 102.399 33.9321 101.503 34.4858C100.606 35.0308 99.5427 35.3032 98.3123 35.3032ZM97.1125 32.9829C98.0881 32.9829 98.8484 32.6357 99.3933 31.9414C99.9382 31.2471 100.211 30.2583 100.211 28.9751C100.211 27.7095 99.9294 26.7207 99.3669 26.0088C98.8132 25.2969 98.053 24.9409 97.0862 24.9409C96.0754 24.9409 95.2976 25.3057 94.7527 26.0352C94.2166 26.7646 93.9485 27.7578 93.9485 29.0146C93.9485 30.2627 94.2209 31.2383 94.7659 31.9414C95.3196 32.6357 96.1018 32.9829 97.1125 32.9829ZM112.959 35.29C112.072 35.29 111.324 35.1758 110.718 34.9473C110.112 34.7188 109.615 34.3848 109.228 33.9453L109.176 34.9868C108.771 34.9868 108.371 34.9736 107.976 34.9473C107.58 34.9209 107.18 34.9077 106.776 34.9077V31.1636H109.162C109.233 31.9634 109.571 32.561 110.177 32.9565C110.784 33.3433 111.487 33.5366 112.287 33.5366C112.902 33.5366 113.407 33.4224 113.803 33.1938C114.198 32.9653 114.396 32.6533 114.396 32.2578C114.396 31.9062 114.212 31.6162 113.843 31.3877C113.482 31.1592 113.008 30.9482 112.419 30.7549C111.839 30.5527 111.219 30.3374 110.56 30.1089C109.778 29.8276 109.101 29.5332 108.53 29.2256C107.958 28.918 107.519 28.54 107.211 28.0918C106.904 27.6436 106.75 27.0679 106.75 26.3647C106.75 25.2661 107.154 24.3916 107.963 23.7412C108.771 23.0908 109.918 22.7656 111.404 22.7656C112.177 22.7656 112.898 22.8667 113.566 23.0688C114.242 23.2622 114.77 23.5566 115.148 23.9521C115.165 23.8818 115.187 23.7676 115.214 23.6094C115.249 23.4424 115.28 23.2886 115.306 23.1479C115.341 23.0073 115.359 22.937 115.359 22.937C115.359 22.937 115.482 22.9502 115.728 22.9766C115.983 22.9941 116.264 23.0205 116.572 23.0557C116.888 23.082 117.143 23.104 117.336 23.1216V26.6548H115.253C115.113 26.0132 114.779 25.5034 114.251 25.1255C113.733 24.7476 113.043 24.5454 112.181 24.519C111.487 24.519 110.982 24.6509 110.665 24.9146C110.358 25.1694 110.204 25.4639 110.204 25.7979C110.204 26.2197 110.459 26.5449 110.969 26.7734C111.478 27.002 112.186 27.2524 113.091 27.5249C114.119 27.8062 114.99 28.1138 115.701 28.4478C116.422 28.7729 116.967 29.1816 117.336 29.6738C117.705 30.1572 117.89 30.7856 117.89 31.5591C117.89 32.438 117.653 33.1543 117.178 33.708C116.703 34.2529 116.088 34.6528 115.332 34.9077C114.585 35.1626 113.794 35.29 112.959 35.29Z" fill="#F2F2F2"/>
<path d="M15.2199 35.5187C9.47144 38.195 24.027 22.1788 21.2621 15.8157C17.7578 10.0113 2.15197 12.2224 4.41919 10.0307C7.16477 7.37649 24.8787 7.322 28.5104 12.5778C31.7306 17.906 16.2697 35.0299 15.2199 35.5187Z" fill="#F2F2F2"/>
</svg>
