<svg width="410" height="142" viewBox="0 0 410 142" fill="none" xmlns="http://www.w3.org/2000/svg">
<path d="M109.848 116.583C104.725 116.583 100.854 115.378 98.2332 112.969C95.6125 110.56 94.3022 107.672 94.3022 104.305C94.3022 100.416 95.9995 97.3396 99.3947 95.0756C102.819 92.7828 107.495 91.6362 113.421 91.6362C115.357 91.6362 117.293 91.7524 119.229 91.9846C121.165 92.1877 122.996 92.507 124.724 92.9423V87.9356C124.724 85.7297 123.934 83.9738 122.356 82.6677C120.807 81.3617 118.395 80.7085 115.119 80.7085C109.699 80.7085 106.468 82.8127 105.425 87.0215L98.0546 86.3683L98.3226 77.6611C99.1863 77.2546 101.196 76.6889 104.353 75.963C107.51 75.2084 111.545 74.8313 116.459 74.8313C124.202 74.8313 129.786 75.9485 133.211 78.1835C136.666 80.3895 138.393 84.1336 138.393 89.416V103.74C138.393 105.336 138.467 106.482 138.616 107.179C138.795 107.846 139.123 108.253 139.599 108.398C140.105 108.543 140.865 108.615 141.877 108.615H144.022V115.581C143.724 115.581 142.95 115.581 141.699 115.581C140.478 115.552 139.212 115.538 137.902 115.538C136.591 115.538 135.698 115.538 135.221 115.538C133.554 115.567 132.124 115.581 130.933 115.581C129.771 115.61 128.357 115.654 126.689 115.712L125.349 110.052C124.068 112.084 122.222 113.68 119.81 114.841C117.397 116.002 114.077 116.583 109.848 116.583ZM115.03 110.226C116.965 110.226 118.663 109.892 120.122 109.225C121.581 108.557 122.713 107.585 123.517 106.308C124.321 105.002 124.724 103.435 124.724 101.606V97.122C123.473 96.7736 122.237 96.5269 121.016 96.3816C119.795 96.2367 118.559 96.164 117.308 96.164C114.211 96.164 111.783 96.8027 110.027 98.0797C108.299 99.3276 107.435 101.069 107.435 103.304C107.435 105.452 108.15 107.15 109.58 108.398C111.039 109.617 112.856 110.226 115.03 110.226ZM156.485 133.562C155.919 133.562 155.19 133.562 154.296 133.562C153.432 133.562 152.703 133.576 152.107 133.605V125.377C152.733 125.377 153.299 125.377 153.805 125.377C154.341 125.377 154.832 125.363 155.279 125.333C157.185 125.275 158.659 124.942 159.701 124.332C160.744 123.752 161.682 122.62 162.516 120.936L163.454 119.021C163.454 119.021 163.097 118.281 162.382 116.8C161.667 115.349 160.744 113.463 159.612 111.141C158.51 108.819 157.319 106.352 156.038 103.74C154.788 101.098 153.581 98.6021 152.42 96.2512C151.258 93.8712 150.306 91.8974 149.561 90.3301C148.816 88.7628 148.4 87.9066 148.31 87.7616C147.566 86.2524 146.94 85.2072 146.434 84.627C145.958 84.0174 144.96 83.7126 143.441 83.7126H142.146C142.146 83.5967 142.146 83.1756 142.146 82.4501C142.146 81.6955 142.146 80.8392 142.146 79.8816C142.146 78.9236 142.146 78.0818 142.146 77.3563C142.146 76.6017 142.146 76.1665 142.146 76.0502C144.349 76.0502 146.404 76.0647 148.31 76.0938C150.216 76.1229 151.899 76.1374 153.358 76.1374C155.294 76.1374 157.349 76.1374 159.523 76.1374C161.697 76.1083 164.139 76.0793 166.849 76.0502V83.103H165.107C163.945 83.103 163.082 83.2774 162.516 83.6254C161.95 83.9738 161.667 84.4817 161.667 85.1494C161.667 85.5847 161.95 86.4264 162.516 87.6744C163.111 88.9223 163.603 89.9675 163.99 90.809L170.378 104.741L177.57 87.7616C178.076 86.6295 178.389 85.6719 178.508 84.8882C178.33 84.2205 177.883 83.7562 177.168 83.495C176.453 83.2338 175.247 83.103 173.55 83.103V76.0502C175.545 76.0793 177.302 76.1083 178.821 76.1374C180.34 76.1374 181.874 76.1374 183.422 76.1374C185.537 76.1374 187.502 76.1374 189.319 76.1374C191.165 76.1083 193.176 76.0793 195.35 76.0502C195.35 76.1665 195.35 76.5726 195.35 77.2691C195.35 77.9659 195.35 78.7495 195.35 79.6204C195.35 80.4908 195.35 81.2745 195.35 81.9713C195.379 82.6387 195.409 83.0161 195.439 83.103C193.771 83.1321 192.535 83.2774 191.731 83.5386C190.927 83.7998 190.302 84.2641 189.855 84.9318C189.408 85.5992 188.872 86.6005 188.247 87.9356L172.433 121.459C170.974 124.506 169.499 126.901 168.01 128.642C166.521 130.413 164.854 131.675 163.007 132.43C161.191 133.185 159.017 133.562 156.485 133.562ZM196.734 115.581V107.832H198.834C200.293 107.832 201.321 107.614 201.916 107.179C202.542 106.743 202.929 106.149 203.078 105.394C203.227 104.639 203.301 103.797 203.301 102.869V72.5237C203.301 72.2624 203.301 71.9867 203.301 71.6964C203.301 71.4061 203.301 71.1162 203.301 70.8259C203.301 69.6358 203.063 68.6054 202.586 67.7346C202.11 66.8351 200.859 66.385 198.834 66.385H196.734V58.6357C197.032 58.6357 197.836 58.6503 199.147 58.679C200.487 58.708 201.916 58.7371 203.435 58.7662C204.984 58.7662 206.22 58.7662 207.143 58.7662C210.002 58.7662 212.801 58.7516 215.541 58.7226C218.281 58.6935 221.438 58.6645 225.012 58.6357V66.385H222.108C220.768 66.385 219.8 66.6316 219.204 67.1253C218.638 67.6187 218.281 68.2425 218.132 68.9974C217.983 69.752 217.909 70.5357 217.909 71.3484V107.005H232.338C234.631 107.005 236.001 106.09 236.448 104.262C236.894 102.404 237.132 99.7342 237.162 96.2512H245.337V115.581H196.734ZM265.305 116.583C260.183 116.583 256.312 115.378 253.691 112.969C251.07 110.56 249.76 107.672 249.76 104.305C249.76 100.416 251.457 97.3396 254.852 95.0756C258.277 92.7828 262.953 91.6362 268.879 91.6362C270.815 91.6362 272.751 91.7524 274.686 91.9846C276.622 92.1877 278.454 92.507 280.181 92.9423V87.9356C280.181 85.7297 279.392 83.9738 277.813 82.6677C276.265 81.3617 273.852 80.7085 270.576 80.7085C265.156 80.7085 261.925 82.8127 260.883 87.0215L253.512 86.3683L253.78 77.6611C254.644 77.2546 256.654 76.6889 259.811 75.963C262.967 75.2084 267.003 74.8313 271.917 74.8313C279.66 74.8313 285.244 75.9485 288.669 78.1835C292.123 80.3895 293.851 84.1336 293.851 89.416V103.74C293.851 105.336 293.925 106.482 294.074 107.179C294.252 107.846 294.58 108.253 295.057 108.398C295.563 108.543 296.322 108.615 297.335 108.615H299.479V115.581C299.181 115.581 298.407 115.581 297.156 115.581C295.935 115.552 294.67 115.538 293.359 115.538C292.049 115.538 291.155 115.538 290.679 115.538C289.011 115.567 287.582 115.581 286.39 115.581C285.229 115.61 283.814 115.654 282.147 115.712L280.806 110.052C279.526 112.084 277.679 113.68 275.267 114.841C272.855 116.002 269.534 116.583 265.305 116.583ZM270.487 110.226C272.423 110.226 274.12 109.892 275.58 109.225C277.039 108.557 278.171 107.585 278.975 106.308C279.779 105.002 280.181 103.435 280.181 101.606V97.122C278.93 96.7736 277.694 96.5269 276.473 96.3816C275.252 96.2367 274.016 96.164 272.765 96.164C269.668 96.164 267.241 96.8027 265.484 98.0797C263.757 99.3276 262.893 101.069 262.893 103.304C262.893 105.452 263.608 107.15 265.037 108.398C266.496 109.617 268.313 110.226 270.487 110.226ZM336.512 116.583C333.087 116.583 330.183 116.031 327.801 114.928C325.419 113.826 323.378 112.186 321.681 110.009L321.636 115.712C319.819 115.654 318.033 115.61 316.276 115.581C314.519 115.581 312.761 115.567 311.005 115.538C310.349 115.538 309.352 115.538 308.012 115.538C306.701 115.538 305.495 115.552 304.393 115.581C303.321 115.581 302.785 115.581 302.785 115.581V108.659C302.993 108.659 303.41 108.659 304.036 108.659C304.691 108.659 305.093 108.659 305.242 108.659C306.314 108.63 307.073 108.354 307.52 107.832C307.967 107.309 308.235 106.758 308.324 106.177C308.443 105.568 308.503 105.147 308.503 104.915V68.9974C308.503 67.4589 308.026 66.5157 307.073 66.1673C306.12 65.8193 304.646 65.6304 302.651 65.6013V58.6357C304.318 58.6645 306.046 58.6645 307.833 58.6357C309.62 58.5776 311.347 58.5485 313.015 58.5485C314.623 58.5195 316.186 58.505 317.705 58.505C319.224 58.4759 320.713 58.4323 322.172 58.3745V80.404C325.627 76.8048 330.258 75.0054 336.065 75.0054C340.175 75.0054 343.78 75.8471 346.877 77.5303C350.001 79.1848 352.444 81.5648 354.203 84.6703C355.958 87.7761 356.839 91.5058 356.839 95.8592C356.839 99.7778 356.002 103.304 354.335 106.439C352.698 109.573 350.36 112.055 347.321 113.883C344.285 115.683 340.68 116.583 336.512 116.583ZM332.447 108.92C335.753 108.92 338.328 107.774 340.175 105.481C342.022 103.188 342.943 99.9227 342.943 95.6852C342.943 91.5058 341.991 88.2404 340.087 85.8895C338.21 83.5386 335.633 82.3629 332.357 82.3629C328.933 82.3629 326.297 83.5676 324.45 85.9767C322.634 88.3854 321.726 91.6653 321.726 95.8156C321.726 99.9373 322.649 103.159 324.495 105.481C326.371 107.774 329.022 108.92 332.447 108.92ZM386.142 116.539C383.133 116.539 380.602 116.162 378.549 115.407C376.492 114.653 374.811 113.55 373.5 112.098L373.32 115.538C371.952 115.538 370.596 115.494 369.258 115.407C367.916 115.32 366.561 115.277 365.192 115.277V102.912H373.276C373.514 105.554 374.662 107.527 376.716 108.833C378.772 110.11 381.155 110.749 383.865 110.749C385.949 110.749 387.66 110.372 389.002 109.617C390.341 108.862 391.011 107.832 391.011 106.526C391.011 105.365 390.385 104.407 389.134 103.652C387.914 102.898 386.305 102.201 384.309 101.563C382.344 100.895 380.246 100.184 378.013 99.4294C375.36 98.5004 373.07 97.5282 371.132 96.5124C369.197 95.4966 367.709 94.2483 366.666 92.7682C365.622 91.2881 365.104 89.387 365.104 87.0648C365.104 83.4369 366.472 80.549 369.21 78.4011C371.952 76.2533 375.838 75.1794 380.87 75.1794C383.493 75.1794 385.932 75.5133 388.196 76.1807C390.49 76.8193 392.279 77.7915 393.556 79.0976C393.617 78.8654 393.692 78.4883 393.78 77.9659C393.902 77.4144 394.003 76.9065 394.095 76.4419C394.214 75.9776 394.271 75.7454 394.271 75.7454C394.271 75.7454 394.688 75.789 395.525 75.8762C396.385 75.934 397.341 76.0212 398.381 76.1374C399.455 76.2242 400.319 76.2969 400.973 76.355V88.0228H393.915C393.438 85.904 392.306 84.2205 390.52 82.9725C388.762 81.7246 386.424 81.0569 383.506 80.9697C381.155 80.9697 379.44 81.4053 378.369 82.2761C377.326 83.1175 376.807 84.0901 376.807 85.193C376.807 86.5859 377.668 87.6599 379.396 88.4144C381.124 89.1694 383.523 89.9963 386.59 90.8961C390.073 91.8251 393.021 92.8409 395.433 93.9439C397.876 95.0174 399.723 96.3671 400.973 97.9925C402.224 99.5889 402.851 101.664 402.851 104.218C402.851 107.121 402.044 109.486 400.438 111.315C398.829 113.114 396.745 114.435 394.183 115.277C391.652 116.118 388.972 116.539 386.142 116.539Z" fill="#F2F2F2"/>
<path d="M57.2874 120.525C34.3354 132.12 89.8078 69.1786 76.579 46.9492C60.4597 26.9906 -3.29708 40.0968 5.43021 31.3943C15.9989 20.8552 89.0704 14.9028 105.559 32.8259C120.37 51.146 61.479 118.408 57.2874 120.525Z" fill="#F2F2F2"/>
</svg>
