<svg width="190" height="160" viewBox="0 0 190 160" fill="none" xmlns="http://www.w3.org/2000/svg">
<path d="M85.0684 121.123C79.4694 121.123 75.2376 119.772 72.373 117.07C69.5085 114.368 68.0762 111.13 68.0762 107.354C68.0762 102.992 69.9316 99.541 73.6426 97.002C77.3861 94.4303 82.4967 93.1445 88.9746 93.1445C91.0905 93.1445 93.2064 93.2747 95.3223 93.5352C97.4382 93.763 99.4401 94.1211 101.328 94.6094V88.9941C101.328 86.5202 100.465 84.5508 98.7402 83.0859C97.0475 81.6211 94.4108 80.8887 90.8301 80.8887C84.9056 80.8887 81.3737 83.2487 80.2344 87.9688L72.1777 87.2363L72.4707 77.4707C73.4147 77.015 75.612 76.3802 79.0625 75.5664C82.513 74.7201 86.9238 74.2969 92.2949 74.2969C100.758 74.2969 106.862 75.5501 110.605 78.0566C114.382 80.5306 116.27 84.7298 116.27 90.6543V106.719C116.27 108.509 116.351 109.795 116.514 110.576C116.709 111.325 117.067 111.781 117.588 111.943C118.141 112.106 118.971 112.188 120.078 112.188H122.422V120C122.096 120 121.25 120 119.883 120C118.548 119.967 117.165 119.951 115.732 119.951C114.3 119.951 113.324 119.951 112.803 119.951C110.98 119.984 109.417 120 108.115 120C106.846 120.033 105.299 120.081 103.477 120.146L102.012 113.799C100.612 116.077 98.5938 117.868 95.957 119.17C93.3203 120.472 89.6908 121.123 85.0684 121.123ZM90.7324 113.994C92.8483 113.994 94.7038 113.62 96.2988 112.871C97.8939 112.122 99.1309 111.032 100.01 109.6C100.889 108.135 101.328 106.377 101.328 104.326V99.2969C99.9609 98.9062 98.61 98.6296 97.2754 98.4668C95.9408 98.304 94.5898 98.2227 93.2227 98.2227C89.8372 98.2227 87.1842 98.9388 85.2637 100.371C83.3757 101.771 82.4316 103.724 82.4316 106.23C82.4316 108.639 83.2129 110.544 84.7754 111.943C86.3704 113.311 88.3561 113.994 90.7324 113.994ZM162.9 121.123C159.157 121.123 155.983 120.505 153.379 119.268C150.775 118.031 148.545 116.191 146.689 113.75L146.641 120.146C144.655 120.081 142.702 120.033 140.781 120C138.861 120 136.94 119.984 135.02 119.951C134.303 119.951 133.213 119.951 131.748 119.951C130.316 119.951 128.997 119.967 127.793 120C126.621 120 126.035 120 126.035 120V112.236C126.263 112.236 126.719 112.236 127.402 112.236C128.118 112.236 128.558 112.236 128.721 112.236C129.893 112.204 130.723 111.895 131.211 111.309C131.699 110.723 131.992 110.104 132.09 109.453C132.22 108.77 132.285 108.298 132.285 108.037V67.7539C132.285 66.0286 131.764 64.9707 130.723 64.5801C129.681 64.1895 128.07 63.9779 125.889 63.9453V56.1328C127.712 56.1654 129.6 56.1654 131.553 56.1328C133.506 56.0677 135.394 56.0352 137.217 56.0352C138.975 56.0026 140.684 55.9863 142.344 55.9863C144.004 55.9538 145.632 55.9049 147.227 55.8398V80.5469C151.003 76.5104 156.064 74.4922 162.412 74.4922C166.904 74.4922 170.843 75.4362 174.229 77.3242C177.646 79.1797 180.316 81.849 182.236 85.332C184.157 88.8151 185.117 92.998 185.117 97.8809C185.117 102.275 184.206 106.23 182.383 109.746C180.592 113.262 178.037 116.045 174.717 118.096C171.396 120.114 167.458 121.123 162.9 121.123ZM158.457 112.529C162.07 112.529 164.886 111.243 166.904 108.672C168.923 106.1 169.932 102.438 169.932 97.6855C169.932 92.998 168.89 89.3359 166.807 86.6992C164.756 84.0625 161.94 82.7441 158.359 82.7441C154.616 82.7441 151.735 84.0951 149.717 86.7969C147.731 89.4987 146.738 93.1771 146.738 97.832C146.738 102.454 147.747 106.068 149.766 108.672C151.816 111.243 154.714 112.529 158.457 112.529Z" fill="white"/>
<path d="M20.4346 120V108.662H26.6309C30.2783 108.662 32.4316 108.091 33.0908 106.948C33.75 105.806 34.0796 104.004 34.0796 101.543V51.8408C31.5308 53.2471 28.8281 54.4775 25.9717 55.5322C23.1592 56.543 20.7422 57.2461 18.7207 57.6416V44.3921C23.0713 43.689 27.0264 42.3926 30.5859 40.5029C34.1895 38.5693 37.2217 36.3281 39.6826 33.7793H52.2729V101.675C52.2729 103.564 52.4048 105.015 52.6685 106.025C52.9761 107.036 53.7231 107.739 54.9097 108.135C56.1401 108.486 58.1396 108.662 60.9082 108.662H65.4565V120C62.1606 120 58.9087 120 55.7007 120C52.4927 119.956 48.6694 119.912 44.231 119.868C39.0454 119.868 34.7388 119.89 31.311 119.934C27.8833 119.978 24.2578 120 20.4346 120Z" fill="white"/>
</svg>
